M48
;DRILL file {KiCad (6.0.0-rc1-dev-313-g8db361882)} date 08/23/18 14:32:28
;FORMAT={-:-/ absolute / inch / decimal}
FMAT,2
INCH,TZ
T1C0.0157
T2C0.0394
T3C0.0866
T4C0.1260
%
G90
G05
M72
T1
X4.5Y-3.15
X4.5Y-3.375
X4.5Y-3.625
X4.5Y-3.82
X4.5Y-4.
X4.8Y-4.
X4.99Y-3.52
X5.Y-3.15
X5.Y-4.
X5.22Y-3.35
X5.25Y-3.15
X5.25Y-4.
X5.5Y-3.15
X5.5Y-3.51
X5.5Y-4.
X5.69Y-3.39
X5.74Y-3.77
X5.75Y-3.15
X5.75Y-4.
X5.925Y-4.
X6.Y-3.15
X6.14Y-3.67
X6.25Y-3.15
X6.25Y-4.
X6.5Y-3.15
X6.5Y-4.
X6.525Y-3.375
X6.525Y-3.625
X6.525Y-3.82
T2
X6.31Y-3.9
X4.725Y-3.2
X4.725Y-3.3
X6.31Y-3.54
X4.725Y-3.76
X4.725Y-3.86
X4.725Y-3.96
T3
X4.57Y-3.19
X4.57Y-3.31
X6.47Y-3.54
X4.57Y-3.86
X6.47Y-3.9
X4.57Y-3.75
X4.57Y-3.97
T4
X6.04Y-3.9
X4.64Y-3.53
X6.42Y-3.28
T0
M30
