G04 #@! TF.GenerationSoftware,KiCad,Pcbnew,(6.0.0-rc1-dev-313-g8db361882)*
G04 #@! TF.CreationDate,2018-08-23T14:32:26-04:00*
G04 #@! TF.ProjectId,SingleShotICbased,53696E676C6553686F74494362617365,rev?*
G04 #@! TF.SameCoordinates,Original*
G04 #@! TF.FileFunction,Soldermask,Top*
G04 #@! TF.FilePolarity,Negative*
%FSLAX46Y46*%
G04 Gerber Fmt 4.6, Leading zero omitted, Abs format (unit mm)*
G04 Created by KiCad (PCBNEW (6.0.0-rc1-dev-313-g8db361882)) date 08/23/18 14:32:26*
%MOMM*%
%LPD*%
G01*
G04 APERTURE LIST*
%ADD10C,2.600000*%
%ADD11C,3.600000*%
%ADD12C,0.100000*%
%ADD13C,1.550000*%
%ADD14R,1.600000X1.300000*%
%ADD15R,1.100000X1.000000*%
%ADD16R,1.500000X1.500000*%
%ADD17R,1.000000X1.100000*%
%ADD18R,2.100000X2.100000*%
%ADD19O,2.100000X2.100000*%
%ADD20R,0.680000X0.500000*%
%ADD21R,1.310000X3.600000*%
%ADD22R,1.760000X0.850000*%
G04 APERTURE END LIST*
D10*
G04 #@! TO.C,REF\002A\002A*
X116078000Y-81026000D03*
G04 #@! TD*
G04 #@! TO.C,REF\002A\002A*
X116078000Y-84074000D03*
G04 #@! TD*
G04 #@! TO.C,REF\002A\002A*
X116078000Y-95250000D03*
G04 #@! TD*
G04 #@! TO.C,REF\002A\002A*
X116078000Y-98044000D03*
G04 #@! TD*
G04 #@! TO.C,REF\002A\002A*
X116078000Y-100838000D03*
G04 #@! TD*
G04 #@! TO.C,REF\002A\002A*
X164338000Y-99060000D03*
G04 #@! TD*
D11*
G04 #@! TO.C,REF\002A\002A*
X153416000Y-99060000D03*
G04 #@! TD*
G04 #@! TO.C,REF\002A\002A*
X163068000Y-83312000D03*
G04 #@! TD*
D12*
G04 #@! TO.C,C1*
G36*
X131660071Y-82275623D02*
X131692781Y-82280475D01*
X131724857Y-82288509D01*
X131755991Y-82299649D01*
X131785884Y-82313787D01*
X131814247Y-82330787D01*
X131840807Y-82350485D01*
X131865308Y-82372692D01*
X131887515Y-82397193D01*
X131907213Y-82423753D01*
X131924213Y-82452116D01*
X131938351Y-82482009D01*
X131949491Y-82513143D01*
X131957525Y-82545219D01*
X131962377Y-82577929D01*
X131964000Y-82610956D01*
X131964000Y-83487044D01*
X131962377Y-83520071D01*
X131957525Y-83552781D01*
X131949491Y-83584857D01*
X131938351Y-83615991D01*
X131924213Y-83645884D01*
X131907213Y-83674247D01*
X131887515Y-83700807D01*
X131865308Y-83725308D01*
X131840807Y-83747515D01*
X131814247Y-83767213D01*
X131785884Y-83784213D01*
X131755991Y-83798351D01*
X131724857Y-83809491D01*
X131692781Y-83817525D01*
X131660071Y-83822377D01*
X131627044Y-83824000D01*
X130500956Y-83824000D01*
X130467929Y-83822377D01*
X130435219Y-83817525D01*
X130403143Y-83809491D01*
X130372009Y-83798351D01*
X130342116Y-83784213D01*
X130313753Y-83767213D01*
X130287193Y-83747515D01*
X130262692Y-83725308D01*
X130240485Y-83700807D01*
X130220787Y-83674247D01*
X130203787Y-83645884D01*
X130189649Y-83615991D01*
X130178509Y-83584857D01*
X130170475Y-83552781D01*
X130165623Y-83520071D01*
X130164000Y-83487044D01*
X130164000Y-82610956D01*
X130165623Y-82577929D01*
X130170475Y-82545219D01*
X130178509Y-82513143D01*
X130189649Y-82482009D01*
X130203787Y-82452116D01*
X130220787Y-82423753D01*
X130240485Y-82397193D01*
X130262692Y-82372692D01*
X130287193Y-82350485D01*
X130313753Y-82330787D01*
X130342116Y-82313787D01*
X130372009Y-82299649D01*
X130403143Y-82288509D01*
X130435219Y-82280475D01*
X130467929Y-82275623D01*
X130500956Y-82274000D01*
X131627044Y-82274000D01*
X131660071Y-82275623D01*
X131660071Y-82275623D01*
G37*
D13*
X131064000Y-83049000D03*
D12*
G36*
X131660071Y-84325623D02*
X131692781Y-84330475D01*
X131724857Y-84338509D01*
X131755991Y-84349649D01*
X131785884Y-84363787D01*
X131814247Y-84380787D01*
X131840807Y-84400485D01*
X131865308Y-84422692D01*
X131887515Y-84447193D01*
X131907213Y-84473753D01*
X131924213Y-84502116D01*
X131938351Y-84532009D01*
X131949491Y-84563143D01*
X131957525Y-84595219D01*
X131962377Y-84627929D01*
X131964000Y-84660956D01*
X131964000Y-85537044D01*
X131962377Y-85570071D01*
X131957525Y-85602781D01*
X131949491Y-85634857D01*
X131938351Y-85665991D01*
X131924213Y-85695884D01*
X131907213Y-85724247D01*
X131887515Y-85750807D01*
X131865308Y-85775308D01*
X131840807Y-85797515D01*
X131814247Y-85817213D01*
X131785884Y-85834213D01*
X131755991Y-85848351D01*
X131724857Y-85859491D01*
X131692781Y-85867525D01*
X131660071Y-85872377D01*
X131627044Y-85874000D01*
X130500956Y-85874000D01*
X130467929Y-85872377D01*
X130435219Y-85867525D01*
X130403143Y-85859491D01*
X130372009Y-85848351D01*
X130342116Y-85834213D01*
X130313753Y-85817213D01*
X130287193Y-85797515D01*
X130262692Y-85775308D01*
X130240485Y-85750807D01*
X130220787Y-85724247D01*
X130203787Y-85695884D01*
X130189649Y-85665991D01*
X130178509Y-85634857D01*
X130170475Y-85602781D01*
X130165623Y-85570071D01*
X130164000Y-85537044D01*
X130164000Y-84660956D01*
X130165623Y-84627929D01*
X130170475Y-84595219D01*
X130178509Y-84563143D01*
X130189649Y-84532009D01*
X130203787Y-84502116D01*
X130220787Y-84473753D01*
X130240485Y-84447193D01*
X130262692Y-84422692D01*
X130287193Y-84400485D01*
X130313753Y-84380787D01*
X130342116Y-84363787D01*
X130372009Y-84349649D01*
X130403143Y-84338509D01*
X130435219Y-84330475D01*
X130467929Y-84325623D01*
X130500956Y-84324000D01*
X131627044Y-84324000D01*
X131660071Y-84325623D01*
X131660071Y-84325623D01*
G37*
D13*
X131064000Y-85099000D03*
G04 #@! TD*
D12*
G04 #@! TO.C,C2*
G36*
X154139071Y-85214623D02*
X154171781Y-85219475D01*
X154203857Y-85227509D01*
X154234991Y-85238649D01*
X154264884Y-85252787D01*
X154293247Y-85269787D01*
X154319807Y-85289485D01*
X154344308Y-85311692D01*
X154366515Y-85336193D01*
X154386213Y-85362753D01*
X154403213Y-85391116D01*
X154417351Y-85421009D01*
X154428491Y-85452143D01*
X154436525Y-85484219D01*
X154441377Y-85516929D01*
X154443000Y-85549956D01*
X154443000Y-86426044D01*
X154441377Y-86459071D01*
X154436525Y-86491781D01*
X154428491Y-86523857D01*
X154417351Y-86554991D01*
X154403213Y-86584884D01*
X154386213Y-86613247D01*
X154366515Y-86639807D01*
X154344308Y-86664308D01*
X154319807Y-86686515D01*
X154293247Y-86706213D01*
X154264884Y-86723213D01*
X154234991Y-86737351D01*
X154203857Y-86748491D01*
X154171781Y-86756525D01*
X154139071Y-86761377D01*
X154106044Y-86763000D01*
X152979956Y-86763000D01*
X152946929Y-86761377D01*
X152914219Y-86756525D01*
X152882143Y-86748491D01*
X152851009Y-86737351D01*
X152821116Y-86723213D01*
X152792753Y-86706213D01*
X152766193Y-86686515D01*
X152741692Y-86664308D01*
X152719485Y-86639807D01*
X152699787Y-86613247D01*
X152682787Y-86584884D01*
X152668649Y-86554991D01*
X152657509Y-86523857D01*
X152649475Y-86491781D01*
X152644623Y-86459071D01*
X152643000Y-86426044D01*
X152643000Y-85549956D01*
X152644623Y-85516929D01*
X152649475Y-85484219D01*
X152657509Y-85452143D01*
X152668649Y-85421009D01*
X152682787Y-85391116D01*
X152699787Y-85362753D01*
X152719485Y-85336193D01*
X152741692Y-85311692D01*
X152766193Y-85289485D01*
X152792753Y-85269787D01*
X152821116Y-85252787D01*
X152851009Y-85238649D01*
X152882143Y-85227509D01*
X152914219Y-85219475D01*
X152946929Y-85214623D01*
X152979956Y-85213000D01*
X154106044Y-85213000D01*
X154139071Y-85214623D01*
X154139071Y-85214623D01*
G37*
D13*
X153543000Y-85988000D03*
D12*
G36*
X154139071Y-83164623D02*
X154171781Y-83169475D01*
X154203857Y-83177509D01*
X154234991Y-83188649D01*
X154264884Y-83202787D01*
X154293247Y-83219787D01*
X154319807Y-83239485D01*
X154344308Y-83261692D01*
X154366515Y-83286193D01*
X154386213Y-83312753D01*
X154403213Y-83341116D01*
X154417351Y-83371009D01*
X154428491Y-83402143D01*
X154436525Y-83434219D01*
X154441377Y-83466929D01*
X154443000Y-83499956D01*
X154443000Y-84376044D01*
X154441377Y-84409071D01*
X154436525Y-84441781D01*
X154428491Y-84473857D01*
X154417351Y-84504991D01*
X154403213Y-84534884D01*
X154386213Y-84563247D01*
X154366515Y-84589807D01*
X154344308Y-84614308D01*
X154319807Y-84636515D01*
X154293247Y-84656213D01*
X154264884Y-84673213D01*
X154234991Y-84687351D01*
X154203857Y-84698491D01*
X154171781Y-84706525D01*
X154139071Y-84711377D01*
X154106044Y-84713000D01*
X152979956Y-84713000D01*
X152946929Y-84711377D01*
X152914219Y-84706525D01*
X152882143Y-84698491D01*
X152851009Y-84687351D01*
X152821116Y-84673213D01*
X152792753Y-84656213D01*
X152766193Y-84636515D01*
X152741692Y-84614308D01*
X152719485Y-84589807D01*
X152699787Y-84563247D01*
X152682787Y-84534884D01*
X152668649Y-84504991D01*
X152657509Y-84473857D01*
X152649475Y-84441781D01*
X152644623Y-84409071D01*
X152643000Y-84376044D01*
X152643000Y-83499956D01*
X152644623Y-83466929D01*
X152649475Y-83434219D01*
X152657509Y-83402143D01*
X152668649Y-83371009D01*
X152682787Y-83341116D01*
X152699787Y-83312753D01*
X152719485Y-83286193D01*
X152741692Y-83261692D01*
X152766193Y-83239485D01*
X152792753Y-83219787D01*
X152821116Y-83202787D01*
X152851009Y-83188649D01*
X152882143Y-83177509D01*
X152914219Y-83169475D01*
X152946929Y-83164623D01*
X152979956Y-83163000D01*
X154106044Y-83163000D01*
X154139071Y-83164623D01*
X154139071Y-83164623D01*
G37*
D13*
X153543000Y-83938000D03*
G04 #@! TD*
D12*
G04 #@! TO.C,C3*
G36*
X146392071Y-83545623D02*
X146424781Y-83550475D01*
X146456857Y-83558509D01*
X146487991Y-83569649D01*
X146517884Y-83583787D01*
X146546247Y-83600787D01*
X146572807Y-83620485D01*
X146597308Y-83642692D01*
X146619515Y-83667193D01*
X146639213Y-83693753D01*
X146656213Y-83722116D01*
X146670351Y-83752009D01*
X146681491Y-83783143D01*
X146689525Y-83815219D01*
X146694377Y-83847929D01*
X146696000Y-83880956D01*
X146696000Y-84757044D01*
X146694377Y-84790071D01*
X146689525Y-84822781D01*
X146681491Y-84854857D01*
X146670351Y-84885991D01*
X146656213Y-84915884D01*
X146639213Y-84944247D01*
X146619515Y-84970807D01*
X146597308Y-84995308D01*
X146572807Y-85017515D01*
X146546247Y-85037213D01*
X146517884Y-85054213D01*
X146487991Y-85068351D01*
X146456857Y-85079491D01*
X146424781Y-85087525D01*
X146392071Y-85092377D01*
X146359044Y-85094000D01*
X145232956Y-85094000D01*
X145199929Y-85092377D01*
X145167219Y-85087525D01*
X145135143Y-85079491D01*
X145104009Y-85068351D01*
X145074116Y-85054213D01*
X145045753Y-85037213D01*
X145019193Y-85017515D01*
X144994692Y-84995308D01*
X144972485Y-84970807D01*
X144952787Y-84944247D01*
X144935787Y-84915884D01*
X144921649Y-84885991D01*
X144910509Y-84854857D01*
X144902475Y-84822781D01*
X144897623Y-84790071D01*
X144896000Y-84757044D01*
X144896000Y-83880956D01*
X144897623Y-83847929D01*
X144902475Y-83815219D01*
X144910509Y-83783143D01*
X144921649Y-83752009D01*
X144935787Y-83722116D01*
X144952787Y-83693753D01*
X144972485Y-83667193D01*
X144994692Y-83642692D01*
X145019193Y-83620485D01*
X145045753Y-83600787D01*
X145074116Y-83583787D01*
X145104009Y-83569649D01*
X145135143Y-83558509D01*
X145167219Y-83550475D01*
X145199929Y-83545623D01*
X145232956Y-83544000D01*
X146359044Y-83544000D01*
X146392071Y-83545623D01*
X146392071Y-83545623D01*
G37*
D13*
X145796000Y-84319000D03*
D12*
G36*
X146392071Y-85595623D02*
X146424781Y-85600475D01*
X146456857Y-85608509D01*
X146487991Y-85619649D01*
X146517884Y-85633787D01*
X146546247Y-85650787D01*
X146572807Y-85670485D01*
X146597308Y-85692692D01*
X146619515Y-85717193D01*
X146639213Y-85743753D01*
X146656213Y-85772116D01*
X146670351Y-85802009D01*
X146681491Y-85833143D01*
X146689525Y-85865219D01*
X146694377Y-85897929D01*
X146696000Y-85930956D01*
X146696000Y-86807044D01*
X146694377Y-86840071D01*
X146689525Y-86872781D01*
X146681491Y-86904857D01*
X146670351Y-86935991D01*
X146656213Y-86965884D01*
X146639213Y-86994247D01*
X146619515Y-87020807D01*
X146597308Y-87045308D01*
X146572807Y-87067515D01*
X146546247Y-87087213D01*
X146517884Y-87104213D01*
X146487991Y-87118351D01*
X146456857Y-87129491D01*
X146424781Y-87137525D01*
X146392071Y-87142377D01*
X146359044Y-87144000D01*
X145232956Y-87144000D01*
X145199929Y-87142377D01*
X145167219Y-87137525D01*
X145135143Y-87129491D01*
X145104009Y-87118351D01*
X145074116Y-87104213D01*
X145045753Y-87087213D01*
X145019193Y-87067515D01*
X144994692Y-87045308D01*
X144972485Y-87020807D01*
X144952787Y-86994247D01*
X144935787Y-86965884D01*
X144921649Y-86935991D01*
X144910509Y-86904857D01*
X144902475Y-86872781D01*
X144897623Y-86840071D01*
X144896000Y-86807044D01*
X144896000Y-85930956D01*
X144897623Y-85897929D01*
X144902475Y-85865219D01*
X144910509Y-85833143D01*
X144921649Y-85802009D01*
X144935787Y-85772116D01*
X144952787Y-85743753D01*
X144972485Y-85717193D01*
X144994692Y-85692692D01*
X145019193Y-85670485D01*
X145045753Y-85650787D01*
X145074116Y-85633787D01*
X145104009Y-85619649D01*
X145135143Y-85608509D01*
X145167219Y-85600475D01*
X145199929Y-85595623D01*
X145232956Y-85594000D01*
X146359044Y-85594000D01*
X146392071Y-85595623D01*
X146392071Y-85595623D01*
G37*
D13*
X145796000Y-86369000D03*
G04 #@! TD*
D12*
G04 #@! TO.C,C4*
G36*
X138772071Y-83309623D02*
X138804781Y-83314475D01*
X138836857Y-83322509D01*
X138867991Y-83333649D01*
X138897884Y-83347787D01*
X138926247Y-83364787D01*
X138952807Y-83384485D01*
X138977308Y-83406692D01*
X138999515Y-83431193D01*
X139019213Y-83457753D01*
X139036213Y-83486116D01*
X139050351Y-83516009D01*
X139061491Y-83547143D01*
X139069525Y-83579219D01*
X139074377Y-83611929D01*
X139076000Y-83644956D01*
X139076000Y-84521044D01*
X139074377Y-84554071D01*
X139069525Y-84586781D01*
X139061491Y-84618857D01*
X139050351Y-84649991D01*
X139036213Y-84679884D01*
X139019213Y-84708247D01*
X138999515Y-84734807D01*
X138977308Y-84759308D01*
X138952807Y-84781515D01*
X138926247Y-84801213D01*
X138897884Y-84818213D01*
X138867991Y-84832351D01*
X138836857Y-84843491D01*
X138804781Y-84851525D01*
X138772071Y-84856377D01*
X138739044Y-84858000D01*
X137612956Y-84858000D01*
X137579929Y-84856377D01*
X137547219Y-84851525D01*
X137515143Y-84843491D01*
X137484009Y-84832351D01*
X137454116Y-84818213D01*
X137425753Y-84801213D01*
X137399193Y-84781515D01*
X137374692Y-84759308D01*
X137352485Y-84734807D01*
X137332787Y-84708247D01*
X137315787Y-84679884D01*
X137301649Y-84649991D01*
X137290509Y-84618857D01*
X137282475Y-84586781D01*
X137277623Y-84554071D01*
X137276000Y-84521044D01*
X137276000Y-83644956D01*
X137277623Y-83611929D01*
X137282475Y-83579219D01*
X137290509Y-83547143D01*
X137301649Y-83516009D01*
X137315787Y-83486116D01*
X137332787Y-83457753D01*
X137352485Y-83431193D01*
X137374692Y-83406692D01*
X137399193Y-83384485D01*
X137425753Y-83364787D01*
X137454116Y-83347787D01*
X137484009Y-83333649D01*
X137515143Y-83322509D01*
X137547219Y-83314475D01*
X137579929Y-83309623D01*
X137612956Y-83308000D01*
X138739044Y-83308000D01*
X138772071Y-83309623D01*
X138772071Y-83309623D01*
G37*
D13*
X138176000Y-84083000D03*
D12*
G36*
X138772071Y-81259623D02*
X138804781Y-81264475D01*
X138836857Y-81272509D01*
X138867991Y-81283649D01*
X138897884Y-81297787D01*
X138926247Y-81314787D01*
X138952807Y-81334485D01*
X138977308Y-81356692D01*
X138999515Y-81381193D01*
X139019213Y-81407753D01*
X139036213Y-81436116D01*
X139050351Y-81466009D01*
X139061491Y-81497143D01*
X139069525Y-81529219D01*
X139074377Y-81561929D01*
X139076000Y-81594956D01*
X139076000Y-82471044D01*
X139074377Y-82504071D01*
X139069525Y-82536781D01*
X139061491Y-82568857D01*
X139050351Y-82599991D01*
X139036213Y-82629884D01*
X139019213Y-82658247D01*
X138999515Y-82684807D01*
X138977308Y-82709308D01*
X138952807Y-82731515D01*
X138926247Y-82751213D01*
X138897884Y-82768213D01*
X138867991Y-82782351D01*
X138836857Y-82793491D01*
X138804781Y-82801525D01*
X138772071Y-82806377D01*
X138739044Y-82808000D01*
X137612956Y-82808000D01*
X137579929Y-82806377D01*
X137547219Y-82801525D01*
X137515143Y-82793491D01*
X137484009Y-82782351D01*
X137454116Y-82768213D01*
X137425753Y-82751213D01*
X137399193Y-82731515D01*
X137374692Y-82709308D01*
X137352485Y-82684807D01*
X137332787Y-82658247D01*
X137315787Y-82629884D01*
X137301649Y-82599991D01*
X137290509Y-82568857D01*
X137282475Y-82536781D01*
X137277623Y-82504071D01*
X137276000Y-82471044D01*
X137276000Y-81594956D01*
X137277623Y-81561929D01*
X137282475Y-81529219D01*
X137290509Y-81497143D01*
X137301649Y-81466009D01*
X137315787Y-81436116D01*
X137332787Y-81407753D01*
X137352485Y-81381193D01*
X137374692Y-81356692D01*
X137399193Y-81334485D01*
X137425753Y-81314787D01*
X137454116Y-81297787D01*
X137484009Y-81283649D01*
X137515143Y-81272509D01*
X137547219Y-81264475D01*
X137579929Y-81259623D01*
X137612956Y-81258000D01*
X138739044Y-81258000D01*
X138772071Y-81259623D01*
X138772071Y-81259623D01*
G37*
D13*
X138176000Y-82033000D03*
G04 #@! TD*
D14*
G04 #@! TO.C,D1*
X157480000Y-87502000D03*
X157480000Y-84202000D03*
G04 #@! TD*
D15*
G04 #@! TO.C,D2*
X161036000Y-93280000D03*
X161036000Y-94680000D03*
G04 #@! TD*
D16*
G04 #@! TO.C,D3*
X127130000Y-82677000D03*
X124330000Y-82677000D03*
G04 #@! TD*
D17*
G04 #@! TO.C,D4*
X156780000Y-94996000D03*
X158180000Y-94996000D03*
G04 #@! TD*
D15*
G04 #@! TO.C,D5*
X139700000Y-88076000D03*
X139700000Y-86676000D03*
G04 #@! TD*
D16*
G04 #@! TO.C,D6*
X128527000Y-99695000D03*
X125727000Y-99695000D03*
G04 #@! TD*
G04 #@! TO.C,D7*
X125727000Y-97155000D03*
X128527000Y-97155000D03*
G04 #@! TD*
D17*
G04 #@! TO.C,D8*
X124779000Y-93091000D03*
X123379000Y-93091000D03*
G04 #@! TD*
D14*
G04 #@! TO.C,D9*
X124841000Y-86361000D03*
X124841000Y-89661000D03*
G04 #@! TD*
D18*
G04 #@! TO.C,J1*
X160274000Y-89916000D03*
G04 #@! TD*
G04 #@! TO.C,J2*
X120015000Y-83820000D03*
D19*
X120015000Y-81280000D03*
G04 #@! TD*
D18*
G04 #@! TO.C,J3*
X160274000Y-99060000D03*
G04 #@! TD*
G04 #@! TO.C,J4*
X120015000Y-100584000D03*
D19*
X120015000Y-98044000D03*
X120015000Y-95504000D03*
G04 #@! TD*
D12*
G04 #@! TO.C,R1*
G36*
X156418071Y-90541623D02*
X156450781Y-90546475D01*
X156482857Y-90554509D01*
X156513991Y-90565649D01*
X156543884Y-90579787D01*
X156572247Y-90596787D01*
X156598807Y-90616485D01*
X156623308Y-90638692D01*
X156645515Y-90663193D01*
X156665213Y-90689753D01*
X156682213Y-90718116D01*
X156696351Y-90748009D01*
X156707491Y-90779143D01*
X156715525Y-90811219D01*
X156720377Y-90843929D01*
X156722000Y-90876956D01*
X156722000Y-92003044D01*
X156720377Y-92036071D01*
X156715525Y-92068781D01*
X156707491Y-92100857D01*
X156696351Y-92131991D01*
X156682213Y-92161884D01*
X156665213Y-92190247D01*
X156645515Y-92216807D01*
X156623308Y-92241308D01*
X156598807Y-92263515D01*
X156572247Y-92283213D01*
X156543884Y-92300213D01*
X156513991Y-92314351D01*
X156482857Y-92325491D01*
X156450781Y-92333525D01*
X156418071Y-92338377D01*
X156385044Y-92340000D01*
X155508956Y-92340000D01*
X155475929Y-92338377D01*
X155443219Y-92333525D01*
X155411143Y-92325491D01*
X155380009Y-92314351D01*
X155350116Y-92300213D01*
X155321753Y-92283213D01*
X155295193Y-92263515D01*
X155270692Y-92241308D01*
X155248485Y-92216807D01*
X155228787Y-92190247D01*
X155211787Y-92161884D01*
X155197649Y-92131991D01*
X155186509Y-92100857D01*
X155178475Y-92068781D01*
X155173623Y-92036071D01*
X155172000Y-92003044D01*
X155172000Y-90876956D01*
X155173623Y-90843929D01*
X155178475Y-90811219D01*
X155186509Y-90779143D01*
X155197649Y-90748009D01*
X155211787Y-90718116D01*
X155228787Y-90689753D01*
X155248485Y-90663193D01*
X155270692Y-90638692D01*
X155295193Y-90616485D01*
X155321753Y-90596787D01*
X155350116Y-90579787D01*
X155380009Y-90565649D01*
X155411143Y-90554509D01*
X155443219Y-90546475D01*
X155475929Y-90541623D01*
X155508956Y-90540000D01*
X156385044Y-90540000D01*
X156418071Y-90541623D01*
X156418071Y-90541623D01*
G37*
D13*
X155947000Y-91440000D03*
D12*
G36*
X158468071Y-90541623D02*
X158500781Y-90546475D01*
X158532857Y-90554509D01*
X158563991Y-90565649D01*
X158593884Y-90579787D01*
X158622247Y-90596787D01*
X158648807Y-90616485D01*
X158673308Y-90638692D01*
X158695515Y-90663193D01*
X158715213Y-90689753D01*
X158732213Y-90718116D01*
X158746351Y-90748009D01*
X158757491Y-90779143D01*
X158765525Y-90811219D01*
X158770377Y-90843929D01*
X158772000Y-90876956D01*
X158772000Y-92003044D01*
X158770377Y-92036071D01*
X158765525Y-92068781D01*
X158757491Y-92100857D01*
X158746351Y-92131991D01*
X158732213Y-92161884D01*
X158715213Y-92190247D01*
X158695515Y-92216807D01*
X158673308Y-92241308D01*
X158648807Y-92263515D01*
X158622247Y-92283213D01*
X158593884Y-92300213D01*
X158563991Y-92314351D01*
X158532857Y-92325491D01*
X158500781Y-92333525D01*
X158468071Y-92338377D01*
X158435044Y-92340000D01*
X157558956Y-92340000D01*
X157525929Y-92338377D01*
X157493219Y-92333525D01*
X157461143Y-92325491D01*
X157430009Y-92314351D01*
X157400116Y-92300213D01*
X157371753Y-92283213D01*
X157345193Y-92263515D01*
X157320692Y-92241308D01*
X157298485Y-92216807D01*
X157278787Y-92190247D01*
X157261787Y-92161884D01*
X157247649Y-92131991D01*
X157236509Y-92100857D01*
X157228475Y-92068781D01*
X157223623Y-92036071D01*
X157222000Y-92003044D01*
X157222000Y-90876956D01*
X157223623Y-90843929D01*
X157228475Y-90811219D01*
X157236509Y-90779143D01*
X157247649Y-90748009D01*
X157261787Y-90718116D01*
X157278787Y-90689753D01*
X157298485Y-90663193D01*
X157320692Y-90638692D01*
X157345193Y-90616485D01*
X157371753Y-90596787D01*
X157400116Y-90579787D01*
X157430009Y-90565649D01*
X157461143Y-90554509D01*
X157493219Y-90546475D01*
X157525929Y-90541623D01*
X157558956Y-90540000D01*
X158435044Y-90540000D01*
X158468071Y-90541623D01*
X158468071Y-90541623D01*
G37*
D13*
X157997000Y-91440000D03*
G04 #@! TD*
D12*
G04 #@! TO.C,R2*
G36*
X135463071Y-98669623D02*
X135495781Y-98674475D01*
X135527857Y-98682509D01*
X135558991Y-98693649D01*
X135588884Y-98707787D01*
X135617247Y-98724787D01*
X135643807Y-98744485D01*
X135668308Y-98766692D01*
X135690515Y-98791193D01*
X135710213Y-98817753D01*
X135727213Y-98846116D01*
X135741351Y-98876009D01*
X135752491Y-98907143D01*
X135760525Y-98939219D01*
X135765377Y-98971929D01*
X135767000Y-99004956D01*
X135767000Y-100131044D01*
X135765377Y-100164071D01*
X135760525Y-100196781D01*
X135752491Y-100228857D01*
X135741351Y-100259991D01*
X135727213Y-100289884D01*
X135710213Y-100318247D01*
X135690515Y-100344807D01*
X135668308Y-100369308D01*
X135643807Y-100391515D01*
X135617247Y-100411213D01*
X135588884Y-100428213D01*
X135558991Y-100442351D01*
X135527857Y-100453491D01*
X135495781Y-100461525D01*
X135463071Y-100466377D01*
X135430044Y-100468000D01*
X134553956Y-100468000D01*
X134520929Y-100466377D01*
X134488219Y-100461525D01*
X134456143Y-100453491D01*
X134425009Y-100442351D01*
X134395116Y-100428213D01*
X134366753Y-100411213D01*
X134340193Y-100391515D01*
X134315692Y-100369308D01*
X134293485Y-100344807D01*
X134273787Y-100318247D01*
X134256787Y-100289884D01*
X134242649Y-100259991D01*
X134231509Y-100228857D01*
X134223475Y-100196781D01*
X134218623Y-100164071D01*
X134217000Y-100131044D01*
X134217000Y-99004956D01*
X134218623Y-98971929D01*
X134223475Y-98939219D01*
X134231509Y-98907143D01*
X134242649Y-98876009D01*
X134256787Y-98846116D01*
X134273787Y-98817753D01*
X134293485Y-98791193D01*
X134315692Y-98766692D01*
X134340193Y-98744485D01*
X134366753Y-98724787D01*
X134395116Y-98707787D01*
X134425009Y-98693649D01*
X134456143Y-98682509D01*
X134488219Y-98674475D01*
X134520929Y-98669623D01*
X134553956Y-98668000D01*
X135430044Y-98668000D01*
X135463071Y-98669623D01*
X135463071Y-98669623D01*
G37*
D13*
X134992000Y-99568000D03*
D12*
G36*
X137513071Y-98669623D02*
X137545781Y-98674475D01*
X137577857Y-98682509D01*
X137608991Y-98693649D01*
X137638884Y-98707787D01*
X137667247Y-98724787D01*
X137693807Y-98744485D01*
X137718308Y-98766692D01*
X137740515Y-98791193D01*
X137760213Y-98817753D01*
X137777213Y-98846116D01*
X137791351Y-98876009D01*
X137802491Y-98907143D01*
X137810525Y-98939219D01*
X137815377Y-98971929D01*
X137817000Y-99004956D01*
X137817000Y-100131044D01*
X137815377Y-100164071D01*
X137810525Y-100196781D01*
X137802491Y-100228857D01*
X137791351Y-100259991D01*
X137777213Y-100289884D01*
X137760213Y-100318247D01*
X137740515Y-100344807D01*
X137718308Y-100369308D01*
X137693807Y-100391515D01*
X137667247Y-100411213D01*
X137638884Y-100428213D01*
X137608991Y-100442351D01*
X137577857Y-100453491D01*
X137545781Y-100461525D01*
X137513071Y-100466377D01*
X137480044Y-100468000D01*
X136603956Y-100468000D01*
X136570929Y-100466377D01*
X136538219Y-100461525D01*
X136506143Y-100453491D01*
X136475009Y-100442351D01*
X136445116Y-100428213D01*
X136416753Y-100411213D01*
X136390193Y-100391515D01*
X136365692Y-100369308D01*
X136343485Y-100344807D01*
X136323787Y-100318247D01*
X136306787Y-100289884D01*
X136292649Y-100259991D01*
X136281509Y-100228857D01*
X136273475Y-100196781D01*
X136268623Y-100164071D01*
X136267000Y-100131044D01*
X136267000Y-99004956D01*
X136268623Y-98971929D01*
X136273475Y-98939219D01*
X136281509Y-98907143D01*
X136292649Y-98876009D01*
X136306787Y-98846116D01*
X136323787Y-98817753D01*
X136343485Y-98791193D01*
X136365692Y-98766692D01*
X136390193Y-98744485D01*
X136416753Y-98724787D01*
X136445116Y-98707787D01*
X136475009Y-98693649D01*
X136506143Y-98682509D01*
X136538219Y-98674475D01*
X136570929Y-98669623D01*
X136603956Y-98668000D01*
X137480044Y-98668000D01*
X137513071Y-98669623D01*
X137513071Y-98669623D01*
G37*
D13*
X137042000Y-99568000D03*
G04 #@! TD*
D12*
G04 #@! TO.C,R3*
G36*
X137649071Y-94986623D02*
X137681781Y-94991475D01*
X137713857Y-94999509D01*
X137744991Y-95010649D01*
X137774884Y-95024787D01*
X137803247Y-95041787D01*
X137829807Y-95061485D01*
X137854308Y-95083692D01*
X137876515Y-95108193D01*
X137896213Y-95134753D01*
X137913213Y-95163116D01*
X137927351Y-95193009D01*
X137938491Y-95224143D01*
X137946525Y-95256219D01*
X137951377Y-95288929D01*
X137953000Y-95321956D01*
X137953000Y-96448044D01*
X137951377Y-96481071D01*
X137946525Y-96513781D01*
X137938491Y-96545857D01*
X137927351Y-96576991D01*
X137913213Y-96606884D01*
X137896213Y-96635247D01*
X137876515Y-96661807D01*
X137854308Y-96686308D01*
X137829807Y-96708515D01*
X137803247Y-96728213D01*
X137774884Y-96745213D01*
X137744991Y-96759351D01*
X137713857Y-96770491D01*
X137681781Y-96778525D01*
X137649071Y-96783377D01*
X137616044Y-96785000D01*
X136739956Y-96785000D01*
X136706929Y-96783377D01*
X136674219Y-96778525D01*
X136642143Y-96770491D01*
X136611009Y-96759351D01*
X136581116Y-96745213D01*
X136552753Y-96728213D01*
X136526193Y-96708515D01*
X136501692Y-96686308D01*
X136479485Y-96661807D01*
X136459787Y-96635247D01*
X136442787Y-96606884D01*
X136428649Y-96576991D01*
X136417509Y-96545857D01*
X136409475Y-96513781D01*
X136404623Y-96481071D01*
X136403000Y-96448044D01*
X136403000Y-95321956D01*
X136404623Y-95288929D01*
X136409475Y-95256219D01*
X136417509Y-95224143D01*
X136428649Y-95193009D01*
X136442787Y-95163116D01*
X136459787Y-95134753D01*
X136479485Y-95108193D01*
X136501692Y-95083692D01*
X136526193Y-95061485D01*
X136552753Y-95041787D01*
X136581116Y-95024787D01*
X136611009Y-95010649D01*
X136642143Y-94999509D01*
X136674219Y-94991475D01*
X136706929Y-94986623D01*
X136739956Y-94985000D01*
X137616044Y-94985000D01*
X137649071Y-94986623D01*
X137649071Y-94986623D01*
G37*
D13*
X137178000Y-95885000D03*
D12*
G36*
X135599071Y-94986623D02*
X135631781Y-94991475D01*
X135663857Y-94999509D01*
X135694991Y-95010649D01*
X135724884Y-95024787D01*
X135753247Y-95041787D01*
X135779807Y-95061485D01*
X135804308Y-95083692D01*
X135826515Y-95108193D01*
X135846213Y-95134753D01*
X135863213Y-95163116D01*
X135877351Y-95193009D01*
X135888491Y-95224143D01*
X135896525Y-95256219D01*
X135901377Y-95288929D01*
X135903000Y-95321956D01*
X135903000Y-96448044D01*
X135901377Y-96481071D01*
X135896525Y-96513781D01*
X135888491Y-96545857D01*
X135877351Y-96576991D01*
X135863213Y-96606884D01*
X135846213Y-96635247D01*
X135826515Y-96661807D01*
X135804308Y-96686308D01*
X135779807Y-96708515D01*
X135753247Y-96728213D01*
X135724884Y-96745213D01*
X135694991Y-96759351D01*
X135663857Y-96770491D01*
X135631781Y-96778525D01*
X135599071Y-96783377D01*
X135566044Y-96785000D01*
X134689956Y-96785000D01*
X134656929Y-96783377D01*
X134624219Y-96778525D01*
X134592143Y-96770491D01*
X134561009Y-96759351D01*
X134531116Y-96745213D01*
X134502753Y-96728213D01*
X134476193Y-96708515D01*
X134451692Y-96686308D01*
X134429485Y-96661807D01*
X134409787Y-96635247D01*
X134392787Y-96606884D01*
X134378649Y-96576991D01*
X134367509Y-96545857D01*
X134359475Y-96513781D01*
X134354623Y-96481071D01*
X134353000Y-96448044D01*
X134353000Y-95321956D01*
X134354623Y-95288929D01*
X134359475Y-95256219D01*
X134367509Y-95224143D01*
X134378649Y-95193009D01*
X134392787Y-95163116D01*
X134409787Y-95134753D01*
X134429485Y-95108193D01*
X134451692Y-95083692D01*
X134476193Y-95061485D01*
X134502753Y-95041787D01*
X134531116Y-95024787D01*
X134561009Y-95010649D01*
X134592143Y-94999509D01*
X134624219Y-94991475D01*
X134656929Y-94986623D01*
X134689956Y-94985000D01*
X135566044Y-94985000D01*
X135599071Y-94986623D01*
X135599071Y-94986623D01*
G37*
D13*
X135128000Y-95885000D03*
G04 #@! TD*
D12*
G04 #@! TO.C,R4*
G36*
X148317071Y-97145623D02*
X148349781Y-97150475D01*
X148381857Y-97158509D01*
X148412991Y-97169649D01*
X148442884Y-97183787D01*
X148471247Y-97200787D01*
X148497807Y-97220485D01*
X148522308Y-97242692D01*
X148544515Y-97267193D01*
X148564213Y-97293753D01*
X148581213Y-97322116D01*
X148595351Y-97352009D01*
X148606491Y-97383143D01*
X148614525Y-97415219D01*
X148619377Y-97447929D01*
X148621000Y-97480956D01*
X148621000Y-98607044D01*
X148619377Y-98640071D01*
X148614525Y-98672781D01*
X148606491Y-98704857D01*
X148595351Y-98735991D01*
X148581213Y-98765884D01*
X148564213Y-98794247D01*
X148544515Y-98820807D01*
X148522308Y-98845308D01*
X148497807Y-98867515D01*
X148471247Y-98887213D01*
X148442884Y-98904213D01*
X148412991Y-98918351D01*
X148381857Y-98929491D01*
X148349781Y-98937525D01*
X148317071Y-98942377D01*
X148284044Y-98944000D01*
X147407956Y-98944000D01*
X147374929Y-98942377D01*
X147342219Y-98937525D01*
X147310143Y-98929491D01*
X147279009Y-98918351D01*
X147249116Y-98904213D01*
X147220753Y-98887213D01*
X147194193Y-98867515D01*
X147169692Y-98845308D01*
X147147485Y-98820807D01*
X147127787Y-98794247D01*
X147110787Y-98765884D01*
X147096649Y-98735991D01*
X147085509Y-98704857D01*
X147077475Y-98672781D01*
X147072623Y-98640071D01*
X147071000Y-98607044D01*
X147071000Y-97480956D01*
X147072623Y-97447929D01*
X147077475Y-97415219D01*
X147085509Y-97383143D01*
X147096649Y-97352009D01*
X147110787Y-97322116D01*
X147127787Y-97293753D01*
X147147485Y-97267193D01*
X147169692Y-97242692D01*
X147194193Y-97220485D01*
X147220753Y-97200787D01*
X147249116Y-97183787D01*
X147279009Y-97169649D01*
X147310143Y-97158509D01*
X147342219Y-97150475D01*
X147374929Y-97145623D01*
X147407956Y-97144000D01*
X148284044Y-97144000D01*
X148317071Y-97145623D01*
X148317071Y-97145623D01*
G37*
D13*
X147846000Y-98044000D03*
D12*
G36*
X146267071Y-97145623D02*
X146299781Y-97150475D01*
X146331857Y-97158509D01*
X146362991Y-97169649D01*
X146392884Y-97183787D01*
X146421247Y-97200787D01*
X146447807Y-97220485D01*
X146472308Y-97242692D01*
X146494515Y-97267193D01*
X146514213Y-97293753D01*
X146531213Y-97322116D01*
X146545351Y-97352009D01*
X146556491Y-97383143D01*
X146564525Y-97415219D01*
X146569377Y-97447929D01*
X146571000Y-97480956D01*
X146571000Y-98607044D01*
X146569377Y-98640071D01*
X146564525Y-98672781D01*
X146556491Y-98704857D01*
X146545351Y-98735991D01*
X146531213Y-98765884D01*
X146514213Y-98794247D01*
X146494515Y-98820807D01*
X146472308Y-98845308D01*
X146447807Y-98867515D01*
X146421247Y-98887213D01*
X146392884Y-98904213D01*
X146362991Y-98918351D01*
X146331857Y-98929491D01*
X146299781Y-98937525D01*
X146267071Y-98942377D01*
X146234044Y-98944000D01*
X145357956Y-98944000D01*
X145324929Y-98942377D01*
X145292219Y-98937525D01*
X145260143Y-98929491D01*
X145229009Y-98918351D01*
X145199116Y-98904213D01*
X145170753Y-98887213D01*
X145144193Y-98867515D01*
X145119692Y-98845308D01*
X145097485Y-98820807D01*
X145077787Y-98794247D01*
X145060787Y-98765884D01*
X145046649Y-98735991D01*
X145035509Y-98704857D01*
X145027475Y-98672781D01*
X145022623Y-98640071D01*
X145021000Y-98607044D01*
X145021000Y-97480956D01*
X145022623Y-97447929D01*
X145027475Y-97415219D01*
X145035509Y-97383143D01*
X145046649Y-97352009D01*
X145060787Y-97322116D01*
X145077787Y-97293753D01*
X145097485Y-97267193D01*
X145119692Y-97242692D01*
X145144193Y-97220485D01*
X145170753Y-97200787D01*
X145199116Y-97183787D01*
X145229009Y-97169649D01*
X145260143Y-97158509D01*
X145292219Y-97150475D01*
X145324929Y-97145623D01*
X145357956Y-97144000D01*
X146234044Y-97144000D01*
X146267071Y-97145623D01*
X146267071Y-97145623D01*
G37*
D13*
X145796000Y-98044000D03*
G04 #@! TD*
D20*
G04 #@! TO.C,U1*
X147802000Y-89449000D03*
X147802000Y-91399000D03*
X150902000Y-91399000D03*
X150902000Y-90749000D03*
X150902000Y-90099000D03*
X150902000Y-89449000D03*
D21*
X149827000Y-90449000D03*
G04 #@! TD*
G04 #@! TO.C,U2*
X133604000Y-90424000D03*
D20*
X134679000Y-89424000D03*
X134679000Y-90074000D03*
X134679000Y-90724000D03*
X134679000Y-91374000D03*
X131579000Y-91374000D03*
X131579000Y-89424000D03*
G04 #@! TD*
D22*
G04 #@! TO.C,U3*
X140382000Y-92522000D03*
X140382000Y-93472000D03*
X140382000Y-94422000D03*
X143082000Y-94422000D03*
X143082000Y-92522000D03*
X143082000Y-93472000D03*
G04 #@! TD*
D11*
G04 #@! TO.C,REF\002A\002A*
X117856000Y-89662000D03*
G04 #@! TD*
D10*
G04 #@! TO.C,REF\002A\002A*
X164338000Y-89916000D03*
G04 #@! TD*
M02*
