G04 #@! TF.GenerationSoftware,KiCad,Pcbnew,(6.0.0-rc1-dev-313-g8db361882)*
G04 #@! TF.CreationDate,2018-08-23T14:32:26-04:00*
G04 #@! TF.ProjectId,SingleShotICbased,53696E676C6553686F74494362617365,rev?*
G04 #@! TF.SameCoordinates,Original*
G04 #@! TF.FileFunction,Legend,Bot*
G04 #@! TF.FilePolarity,Positive*
%FSLAX46Y46*%
G04 Gerber Fmt 4.6, Leading zero omitted, Abs format (unit mm)*
G04 Created by KiCad (PCBNEW (6.0.0-rc1-dev-313-g8db361882)) date 08/23/18 14:32:26*
%MOMM*%
%LPD*%
G01*
G04 APERTURE LIST*
%ADD10C,0.150000*%
G04 APERTURE END LIST*
D10*
X146779333Y-100036380D02*
X146779333Y-100750666D01*
X146826952Y-100893523D01*
X146922190Y-100988761D01*
X147065047Y-101036380D01*
X147160285Y-101036380D01*
X145826952Y-101036380D02*
X146303142Y-101036380D01*
X146303142Y-100036380D01*
X144969809Y-100084000D02*
X145065047Y-100036380D01*
X145207904Y-100036380D01*
X145350761Y-100084000D01*
X145446000Y-100179238D01*
X145493619Y-100274476D01*
X145541238Y-100464952D01*
X145541238Y-100607809D01*
X145493619Y-100798285D01*
X145446000Y-100893523D01*
X145350761Y-100988761D01*
X145207904Y-101036380D01*
X145112666Y-101036380D01*
X144969809Y-100988761D01*
X144922190Y-100941142D01*
X144922190Y-100607809D01*
X145112666Y-100607809D01*
X143731714Y-101036380D02*
X143731714Y-100036380D01*
X143255523Y-101036380D02*
X143255523Y-100036380D01*
X142684095Y-101036380D01*
X142684095Y-100036380D01*
X142207904Y-101036380D02*
X142207904Y-100036380D01*
X141969809Y-100036380D01*
X141826952Y-100084000D01*
X141731714Y-100179238D01*
X141684095Y-100274476D01*
X141636476Y-100464952D01*
X141636476Y-100607809D01*
X141684095Y-100798285D01*
X141731714Y-100893523D01*
X141826952Y-100988761D01*
X141969809Y-101036380D01*
X142207904Y-101036380D01*
X141207904Y-100036380D02*
X141207904Y-100845904D01*
X141160285Y-100941142D01*
X141112666Y-100988761D01*
X141017428Y-101036380D01*
X140826952Y-101036380D01*
X140731714Y-100988761D01*
X140684095Y-100941142D01*
X140636476Y-100845904D01*
X140636476Y-100036380D01*
X140207904Y-100988761D02*
X140065047Y-101036380D01*
X139826952Y-101036380D01*
X139731714Y-100988761D01*
X139684095Y-100941142D01*
X139636476Y-100845904D01*
X139636476Y-100750666D01*
X139684095Y-100655428D01*
X139731714Y-100607809D01*
X139826952Y-100560190D01*
X140017428Y-100512571D01*
X140112666Y-100464952D01*
X140160285Y-100417333D01*
X140207904Y-100322095D01*
X140207904Y-100226857D01*
X140160285Y-100131619D01*
X140112666Y-100084000D01*
X140017428Y-100036380D01*
X139779333Y-100036380D01*
X139636476Y-100084000D01*
X139350761Y-100036380D02*
X138779333Y-100036380D01*
X139065047Y-101036380D02*
X139065047Y-100036380D01*
X137874571Y-101036380D02*
X138207904Y-100560190D01*
X138446000Y-101036380D02*
X138446000Y-100036380D01*
X138065047Y-100036380D01*
X137969809Y-100084000D01*
X137922190Y-100131619D01*
X137874571Y-100226857D01*
X137874571Y-100369714D01*
X137922190Y-100464952D01*
X137969809Y-100512571D01*
X138065047Y-100560190D01*
X138446000Y-100560190D01*
X137446000Y-101036380D02*
X137446000Y-100036380D01*
X136969809Y-100512571D02*
X136636476Y-100512571D01*
X136493619Y-101036380D02*
X136969809Y-101036380D01*
X136969809Y-100036380D01*
X136493619Y-100036380D01*
X136112666Y-100988761D02*
X135969809Y-101036380D01*
X135731714Y-101036380D01*
X135636476Y-100988761D01*
X135588857Y-100941142D01*
X135541238Y-100845904D01*
X135541238Y-100750666D01*
X135588857Y-100655428D01*
X135636476Y-100607809D01*
X135731714Y-100560190D01*
X135922190Y-100512571D01*
X136017428Y-100464952D01*
X136065047Y-100417333D01*
X136112666Y-100322095D01*
X136112666Y-100226857D01*
X136065047Y-100131619D01*
X136017428Y-100084000D01*
X135922190Y-100036380D01*
X135684095Y-100036380D01*
X135541238Y-100084000D01*
X134350761Y-101036380D02*
X134350761Y-100036380D01*
X133874571Y-101036380D02*
X133874571Y-100036380D01*
X133303142Y-101036380D01*
X133303142Y-100036380D01*
X132255523Y-100941142D02*
X132303142Y-100988761D01*
X132446000Y-101036380D01*
X132541238Y-101036380D01*
X132684095Y-100988761D01*
X132779333Y-100893523D01*
X132826952Y-100798285D01*
X132874571Y-100607809D01*
X132874571Y-100464952D01*
X132826952Y-100274476D01*
X132779333Y-100179238D01*
X132684095Y-100084000D01*
X132541238Y-100036380D01*
X132446000Y-100036380D01*
X132303142Y-100084000D01*
X132255523Y-100131619D01*
X131826952Y-100941142D02*
X131779333Y-100988761D01*
X131826952Y-101036380D01*
X131874571Y-100988761D01*
X131826952Y-100941142D01*
X131826952Y-101036380D01*
X155956000Y-81252785D02*
X154867428Y-81252785D01*
X155411714Y-83157785D02*
X155411714Y-81252785D01*
X154232428Y-83157785D02*
X154232428Y-81252785D01*
X153506714Y-81252785D01*
X153325285Y-81343500D01*
X153234571Y-81434214D01*
X153143857Y-81615642D01*
X153143857Y-81887785D01*
X153234571Y-82069214D01*
X153325285Y-82159928D01*
X153506714Y-82250642D01*
X154232428Y-82250642D01*
X151420285Y-83157785D02*
X152327428Y-83157785D01*
X152327428Y-81252785D01*
X149878142Y-81252785D02*
X150785285Y-81252785D01*
X150876000Y-82159928D01*
X150785285Y-82069214D01*
X150603857Y-81978500D01*
X150150285Y-81978500D01*
X149968857Y-82069214D01*
X149878142Y-82159928D01*
X149787428Y-82341357D01*
X149787428Y-82794928D01*
X149878142Y-82976357D01*
X149968857Y-83067071D01*
X150150285Y-83157785D01*
X150603857Y-83157785D01*
X150785285Y-83067071D01*
X150876000Y-82976357D01*
X147973142Y-83157785D02*
X149061714Y-83157785D01*
X148517428Y-83157785D02*
X148517428Y-81252785D01*
X148698857Y-81524928D01*
X148880285Y-81706357D01*
X149061714Y-81797071D01*
X146158857Y-83157785D02*
X147247428Y-83157785D01*
X146703142Y-83157785D02*
X146703142Y-81252785D01*
X146884571Y-81524928D01*
X147066000Y-81706357D01*
X147247428Y-81797071D01*
X144344571Y-83157785D02*
X145433142Y-83157785D01*
X144888857Y-83157785D02*
X144888857Y-81252785D01*
X145070285Y-81524928D01*
X145251714Y-81706357D01*
X145433142Y-81797071D01*
X142348857Y-81252785D02*
X141260285Y-81252785D01*
X141804571Y-83157785D02*
X141804571Y-81252785D01*
X140625285Y-82159928D02*
X139990285Y-82159928D01*
X139718142Y-83157785D02*
X140625285Y-83157785D01*
X140625285Y-81252785D01*
X139718142Y-81252785D01*
X138992428Y-83067071D02*
X138720285Y-83157785D01*
X138266714Y-83157785D01*
X138085285Y-83067071D01*
X137994571Y-82976357D01*
X137903857Y-82794928D01*
X137903857Y-82613500D01*
X137994571Y-82432071D01*
X138085285Y-82341357D01*
X138266714Y-82250642D01*
X138629571Y-82159928D01*
X138811000Y-82069214D01*
X138901714Y-81978500D01*
X138992428Y-81797071D01*
X138992428Y-81615642D01*
X138901714Y-81434214D01*
X138811000Y-81343500D01*
X138629571Y-81252785D01*
X138176000Y-81252785D01*
X137903857Y-81343500D01*
X137359571Y-81252785D02*
X136271000Y-81252785D01*
X136815285Y-83157785D02*
X136815285Y-81252785D01*
X133549571Y-82159928D02*
X133277428Y-82250642D01*
X133186714Y-82341357D01*
X133096000Y-82522785D01*
X133096000Y-82794928D01*
X133186714Y-82976357D01*
X133277428Y-83067071D01*
X133458857Y-83157785D01*
X134184571Y-83157785D01*
X134184571Y-81252785D01*
X133549571Y-81252785D01*
X133368142Y-81343500D01*
X133277428Y-81434214D01*
X133186714Y-81615642D01*
X133186714Y-81797071D01*
X133277428Y-81978500D01*
X133368142Y-82069214D01*
X133549571Y-82159928D01*
X134184571Y-82159928D01*
X131916714Y-81252785D02*
X131553857Y-81252785D01*
X131372428Y-81343500D01*
X131191000Y-81524928D01*
X131100285Y-81887785D01*
X131100285Y-82522785D01*
X131191000Y-82885642D01*
X131372428Y-83067071D01*
X131553857Y-83157785D01*
X131916714Y-83157785D01*
X132098142Y-83067071D01*
X132279571Y-82885642D01*
X132370285Y-82522785D01*
X132370285Y-81887785D01*
X132279571Y-81524928D01*
X132098142Y-81343500D01*
X131916714Y-81252785D01*
X130374571Y-82613500D02*
X129467428Y-82613500D01*
X130556000Y-83157785D02*
X129921000Y-81252785D01*
X129286000Y-83157785D01*
X127562428Y-83157785D02*
X128197428Y-82250642D01*
X128651000Y-83157785D02*
X128651000Y-81252785D01*
X127925285Y-81252785D01*
X127743857Y-81343500D01*
X127653142Y-81434214D01*
X127562428Y-81615642D01*
X127562428Y-81887785D01*
X127653142Y-82069214D01*
X127743857Y-82159928D01*
X127925285Y-82250642D01*
X128651000Y-82250642D01*
X126746000Y-83157785D02*
X126746000Y-81252785D01*
X126292428Y-81252785D01*
X126020285Y-81343500D01*
X125838857Y-81524928D01*
X125748142Y-81706357D01*
X125657428Y-82069214D01*
X125657428Y-82341357D01*
X125748142Y-82704214D01*
X125838857Y-82885642D01*
X126020285Y-83067071D01*
X126292428Y-83157785D01*
X126746000Y-83157785D01*
M02*
